HIERARCHY
ROOT Hips
{
  OFFSET 45.6401 95.456 7.85658
  CHANNELS 6 Xposition Yposition Zposition Zrotation Xrotation Yrotation
  JOINT spine
  {
    OFFSET 0 7.96568 0.458067
    CHANNELS 3 Zrotation Xrotation Yrotation
    JOINT spine1
    {
      OFFSET 0 10.2431 0
      CHANNELS 3 Zrotation Xrotation Yrotation
      JOINT spine2
      {
        OFFSET 0 9.81475 0
        CHANNELS 3 Zrotation Xrotation Yrotation
        JOINT Neck
        {
          OFFSET 0 25.1986 1.20138
          CHANNELS 3 Zrotation Xrotation Yrotation
          JOINT Head
          {
            OFFSET 0 7.61315 0
            CHANNELS 3 Zrotation Xrotation Yrotation
            End Site
            {
              OFFSET 0 18.4281 -6.07733
            }
          }
        }
        JOINT RightShoulder
        {
          OFFSET -4.1327 10.5992 -0.575451
          CHANNELS 3 Zrotation Xrotation Yrotation
          JOINT RightArm
          {
            OFFSET 0 13.9018 0
            CHANNELS 3 Zrotation Xrotation Yrotation
            JOINT RightArmRoll
            {
              OFFSET 0 7.01788 0
              CHANNELS 3 Zrotation Xrotation Yrotation
              JOINT RightForeArm
              {
                OFFSET 0 20.4406 0
                CHANNELS 3 Zrotation Xrotation Yrotation
                JOINT RightForeArmRoll
                {
                  OFFSET 0 7.87515 0
                  CHANNELS 3 Zrotation Xrotation Yrotation
                  JOINT RightHand
                  {
                    OFFSET 0 15.8037 0
                    CHANNELS 3 Zrotation Xrotation Yrotation
                    End Site
                    {
                      OFFSET 0 0 0
                    }
                  }
                }
              }
            }
          }
        }
        JOINT LeftShoulder
        {
          OFFSET 4.1327 10.5992 -0.575451
          CHANNELS 3 Zrotation Xrotation Yrotation
          JOINT LeftArm
          {
            OFFSET 0 13.9018 0
            CHANNELS 3 Zrotation Xrotation Yrotation
            JOINT LeftArmRoll
            {
              OFFSET 0 7.01788 0
              CHANNELS 3 Zrotation Xrotation Yrotation
              JOINT LeftForeArm
              {
                OFFSET 0 20.4406 0
                CHANNELS 3 Zrotation Xrotation Yrotation
                JOINT LeftForeArmRoll
                {
                  OFFSET 0 7.87515 0
                  CHANNELS 3 Zrotation Xrotation Yrotation
                  JOINT LeftHand
                  {
                    OFFSET 0 15.8037 0
                    CHANNELS 3 Zrotation Xrotation Yrotation
                    End Site
                    {
                      OFFSET 0 0 0
                    }
                  }
                }
              }
            }
          }
        }
      }
    }
  }
  JOINT RightUpLeg
  {
    OFFSET -7.06048 -1.2947 -1.08609
    CHANNELS 3 Zrotation Xrotation Yrotation
    JOINT RightUpLegRoll
    {
      OFFSET 0 18.5308 0
      CHANNELS 3 Zrotation Xrotation Yrotation
      JOINT RightLeg
      {
        OFFSET 0 -22.9476 0
        CHANNELS 3 Zrotation Xrotation Yrotation
        JOINT RightLegRoll
        {
          OFFSET 0 23.0226 0
          CHANNELS 3 Zrotation Xrotation Yrotation
          JOINT RightFoot
          {
            OFFSET 0 19.1625 0
            CHANNELS 3 Zrotation Xrotation Yrotation
            JOINT RightToeBase
            {
              OFFSET 0 16.0188 0
              CHANNELS 3 Zrotation Xrotation Yrotation
              End Site
              {
                OFFSET 0.00678979 7.75783 -0.894206
              }
            }
          }
        }
      }
    }
  }
  JOINT LeftUpLeg
  {
    OFFSET 7.06048 -1.2947 -1.08609
    CHANNELS 3 Zrotation Xrotation Yrotation
    JOINT LeftUpLegRoll
    {
      OFFSET 0 18.5309 0
      CHANNELS 3 Zrotation Xrotation Yrotation
      JOINT LeftLeg
      {
        OFFSET 0 22.9475 0
        CHANNELS 3 Zrotation Xrotation Yrotation
        JOINT LeftLegRoll
        {
          OFFSET 0 23.2355 0
          CHANNELS 3 Zrotation Xrotation Yrotation
          JOINT LeftFoot
          {
            OFFSET 0 18.9496 0
            CHANNELS 3 Zrotation Xrotation Yrotation
            JOINT LeftToeBase
            {
              OFFSET 0 16.0188 0
              CHANNELS 3 Zrotation Xrotation Yrotation
              End Site
              {
                OFFSET -0.0304289 7.75782 -0.894206
              }
            }
          }
        }
      }
    }
  }
}
MOTION
Frames: 4
Frame Time: 0.00208333
47.7997 94.0431 9.86588 -7.71849 0.673791 80.0965 -0.106025 -1.53332 0.0137851 -0.211722 0.936128 0.0384786 -0.212312 2.58118 0.0419998 -43.2731 -23.702 -3.92419 33.363 19.1421 -3.36351 31.2596 7.6345 11.6713 160.342 39.1829 -46.0304 -1.24616e-005 -5.49767e-006 -8.10241e-007 12.2485 19.5909 -3.75791 2.93983e-007 -1.16464e-005 -3.0073 8.02885 -4.95153 0.697705 -77.746 -26.497 13.3898 -92.5796 26.0059 0.961463 6.36111e-015 -5.96354e-015 4.77083e-015 -14.533 20.3106 3.45948 6.74903e-006 -9.19692e-008 3.00001 -8.02912 -4.951 -0.697518 -175.718 5.71408 -1.25476 180 7.01499e-015 178.732 178.249 15.1068 179.712 -7.86722e-007 7.59533e-007 0.66474 -33.9847 75.727 31.0416 8.42041 29.3192 -3.62305 -176.627 30.4167 4.18921 4.54188e-006 -4.6773e-006 -0.745879 1.96057 -15.7447 0.669443 -2.79752e-006 -2.08958e-006 -0.273454 19.4829 68.7392 -20.1791 -8.1319 25.2329 3.48578 
47.8046 94.0448 9.8649 -7.67385 0.663734 80.1351 -0.102049 -1.51557 0.0179619 -0.203712 0.971633 0.0464597 -0.204394 2.61668 0.0498477 -43.2112 -23.5748 -3.84631 33.3604 19.0331 -3.31087 31.3651 7.63391 11.6379 160.005 38.9927 -46.0493 -1.24616e-005 -5.49767e-006 -8.10241e-007 12.6874 19.4885 -3.81026 2.93983e-007 -1.16464e-005 -3.0073 8.02885 -4.95153 0.697705 -77.6762 -26.4903 13.3989 -92.6284 25.8702 0.918534 -1.43125e-014 -5.32743e-014 2.38542e-014 -14.5164 20.1776 3.43408 6.74903e-006 -9.19692e-008 3.00001 -8.02912 -4.951 -0.697518 -175.715 5.63971 -1.24347 180 7.01499e-015 178.732 178.245 15.0621 179.713 -7.86722e-007 7.59533e-007 0.663662 -33.9866 75.7226 31.0338 8.41959 29.3088 -3.62279 -176.64 30.3844 4.19787 4.54188e-006 -4.6773e-006 -0.746007 1.96428 -15.7696 0.671214 -2.79752e-006 -2.08958e-006 -0.274617 19.4894 68.7477 -20.1871 -8.1319 25.2329 3.48578 
47.7928 94.0425 9.86897 -7.6289 0.654375 80.1713 -0.098291 -1.49809 0.0224361 -0.196131 1.00658 0.0550553 -0.196914 2.65163 0.0583188 -43.1484 -23.4469 -3.76873 33.3595 18.9325 -3.26178 31.4723 7.635 11.6055 159.662 38.8062 -46.053 -1.24616e-005 -5.49767e-006 -8.10241e-007 13.1087 19.3968 -3.8605 2.93983e-007 -1.16464e-005 -3.0073 8.02885 -4.95153 0.697705 -77.6095 -26.4841 13.4077 -92.6732 25.7361 0.873712 -2.38542e-014 3.97569e-015 2.54444e-014 -14.5 20.0432 3.40844 6.74903e-006 -9.19693e-008 3.00001 -8.02912 -4.951 -0.697518 -175.712 5.56457 -1.23236 180 7.01499e-015 178.731 178.242 15.0165 179.715 -7.86722e-007 7.59533e-007 0.662551 -33.987 75.7179 31.0248 8.41876 29.2985 -3.62251 -176.653 30.3483 4.20482 4.54188e-006 -4.6773e-006 -0.746205 1.96689 -15.7893 0.67262 -2.79752e-006 -2.08958e-006 -0.275389 19.4936 68.7535 -20.1927 -8.1319 25.2329 3.48578 
47.8018 94.0399 9.87247 -7.58387 0.645772 80.2051 -0.0947572 -1.48096 0.0272124 -0.188993 1.04084 0.0642758 -0.189884 2.68589 0.0674236 -43.0854 -23.318 -3.69168 33.3607 18.8404 -3.21654 31.5812 7.6381 11.5748 159.313 38.6234 -46.0395 -1.24616e-005 -5.49767e-006 -8.10241e-007 13.5107 19.3173 -3.90867 2.93983e-007 -1.16464e-005 -3.0073 8.02885 -4.95153 0.697705 -77.5464 -26.4785 13.4162 -92.7136 25.6035 0.826488 1.27222e-014 5.56597e-015 -3.18055e-015 -14.4836 19.9069 3.38245 6.74903e-006 -9.19692e-008 3.00001 -8.02912 -4.951 -0.697518 -175.71 5.48893 -1.22158 180 7.01499e-015 178.73 178.239 14.9699 179.717 -7.86722e-007 7.59533e-007 0.661411 -33.9861 75.7128 31.0149 8.41794 29.2882 -3.62223 -176.664 30.3083 4.20989 4.54188e-006 -4.6773e-006 -0.74648 1.96824 -15.8028 0.6736 -2.79751e-006 -2.08958e-006 -0.275707 19.4954 68.7565 -20.1955 -8.1319 25.2329 3.48578 
